<svg width="1920" height="864" viewBox="0 0 1920 864" fill="none" xmlns="http://www.w3.org/2000/svg">
    <path d="M1920 864C1899.21 803.76 1850.33 747.179 1795.31 702.89H1868.97C1874.93 702.89 1879.75 698.575 1879.75 693.254C1879.75 687.933 1874.93 683.618 1868.97 683.618H1769.92C1704.56 636.864 1635.46 608.516 1596.85 612.112C1519.63 619.421 1459.01 591.242 1459.01 591.242C1225.08 424.294 1175.99 499.459 1154.07 499.459C1138.01 499.459 1095.63 402.07 1074.09 349.964L1057.55 311.419C1047.26 292.802 1036.77 275.574 1026.08 259.736L1012.42 240.463C805.748 -40.7885 541.026 147.294 541.026 147.294C530.575 99.2925 458.518 102.952 458.518 102.952C369.759 98.256 387.509 89.3811 387.509 89.3811C296.137 8.52484 236.616 61.7308 236.616 61.7308C231.123 56.7745 220.421 49.6676 214.396 45.7881C211.522 43.9382 208.208 42.9192 204.794 42.7654L179.664 41.6331C178.397 41.6334 177.143 41.3842 175.972 40.8996C174.801 40.415 173.738 39.7046 172.842 38.8089C171.946 37.9148 171.236 36.853 170.751 35.6841C170.267 34.5152 170.017 33.2622 170.017 31.9969C170.017 30.7315 170.267 29.4785 170.751 28.3096C171.236 27.1407 171.946 26.079 172.842 25.1849C173.738 24.2891 174.801 23.5787 175.972 23.0941C177.143 22.6095 178.397 22.3601 179.664 22.3604H281.212C287.167 22.3604 291.991 18.0449 291.991 12.7242C291.991 7.40364 287.167 3.0878 281.212 3.0878H125.474C51.0057 -10.8114 -2 26.7186 -2 26.7186V864H1920Z" fill="url(#paint0_linear_6081_14527)"/>
    <defs>
        <linearGradient id="paint0_linear_6081_14527" x1="959" y1="0" x2="959" y2="864" gradientUnits="userSpaceOnUse">
            <stop stop-color="#E7ECF4"/>
            <stop offset="1" stop-color="#F5F7FA"/>
        </linearGradient>
    </defs>
</svg>
