<svg viewBox="0 0 970 316" fill="none" xmlns="http://www.w3.org/2000/svg">
    <g clip-path="url(#clip0_6044_8222)">
        <path d="M712.04 187.337L710.892 186.005C712.566 184.568 714.196 183.052 715.739 181.509C717.951 179.298 720.046 176.972 722.014 174.542L723.372 175.646C721.368 178.122 719.236 180.492 716.983 182.745C715.406 184.322 713.74 185.838 712.04 187.337Z" fill="#00BABA"/>
        <path d="M698.605 196.934L697.729 195.418C702.39 192.69 706.791 189.539 710.875 186.005L712.023 187.337C707.85 190.936 703.359 194.148 698.605 196.934Z" fill="#00BABA"/>
        <path d="M743.152 126.33L741.399 126.189C742.059 118.239 741.652 110.237 740.19 102.395L741.943 102.07C743.431 110.066 743.838 118.226 743.152 126.33Z" fill="#00BABA"/>
        <path d="M669.402 31.5878C661.56 30.1182 653.557 29.7085 645.607 30.3697L645.467 28.6169C653.572 27.9396 661.732 28.3552 669.726 29.8525L669.402 31.5878Z" fill="#00BABA"/>
        <path d="M585.792 60.905L584.469 59.7569C585.941 58.0478 587.484 56.3915 589.052 54.8227C591.305 52.5674 593.675 50.4318 596.151 48.4248L597.256 49.7833C594.829 51.7566 592.504 53.8509 590.288 56.0584C588.772 57.6009 587.238 59.2311 585.792 60.905Z" fill="#00BABA"/>
        <path d="M739.41 145.62L737.736 145.103C739.642 138.95 740.873 132.609 741.408 126.19L743.161 126.33C742.613 132.877 741.355 139.345 739.41 145.62Z" fill="#00BABA"/>
        <path d="M597.255 49.7826L596.151 48.4241C600.465 44.9368 605.088 41.8507 609.964 39.2041L610.84 40.7466C606.044 43.3358 601.497 46.3605 597.255 49.7826Z" fill="#00BABA"/>
        <path d="M576.38 74.0767L574.863 73.2003C577.66 68.437 580.887 63.9396 584.504 59.7646L585.827 60.9128C582.28 65.0011 579.118 69.4077 576.38 74.0767Z" fill="#00BABA"/>
        <path d="M610.805 40.7463L609.928 39.2038C615.099 36.4097 620.529 34.126 626.142 32.3853L626.659 34.0594C621.169 35.766 615.859 38.0056 610.805 40.7463Z" fill="#00BABA"/>
        <path d="M682.848 204.243L682.269 202.596C687.638 200.722 692.812 198.332 697.72 195.461L698.597 196.978C693.593 199.901 688.319 202.334 682.848 204.243Z" fill="#00BABA"/>
        <path d="M626.694 34.0605L626.177 32.3864C632.449 30.4447 638.914 29.1899 645.458 28.644L645.598 30.3969C639.183 30.9301 632.844 32.1586 626.694 34.0605Z" fill="#00BABA"/>
        <path d="M664.143 208.556L663.924 206.803C670.163 206.036 676.304 204.608 682.241 202.543L682.82 204.191C676.766 206.302 670.505 207.765 664.143 208.556Z" fill="#00BABA"/>
        <path d="M740.201 102.395C736.927 84.8293 728.397 68.671 715.74 56.0589C703.131 43.3945 686.972 34.8609 669.403 31.5893L669.728 29.8364C687.643 33.1712 704.123 41.8695 716.984 54.7793C729.888 67.6406 738.583 84.1167 741.918 102.027L740.201 102.395Z" fill="#00BABA"/>
        <path d="M563.355 130.765C562.331 123.089 562.293 115.314 563.241 107.628L564.994 107.847C564.065 115.384 564.1 123.009 565.099 130.537L563.355 130.765Z" fill="#00BABA"/>
        <path d="M732.592 161.834L731.05 160.958C733.791 155.889 736.031 150.564 737.737 145.06L739.411 145.577C737.674 151.206 735.391 156.651 732.592 161.834Z" fill="#00BABA"/>
        <path d="M641.032 208.442C621.334 205.879 603.048 196.84 589.051 182.745C574.96 168.746 565.921 150.461 563.354 130.764L565.107 130.537C567.626 149.85 576.489 167.78 590.304 181.509C604.034 195.325 621.964 204.188 641.277 206.707L641.032 208.442Z" fill="#00BABA"/>
        <path d="M569.254 89.528L567.597 88.9494C569.508 83.4703 571.941 78.1875 574.863 73.1738L576.379 74.0502C573.507 78.9661 571.121 84.1499 569.254 89.528Z" fill="#00BABA"/>
        <path d="M653.031 209.239C649.018 209.24 645.01 208.974 641.033 208.441L641.261 206.688C648.789 207.687 656.414 207.722 663.951 206.794L664.17 208.546C660.475 209.005 656.755 209.236 653.031 209.239Z" fill="#00BABA"/>
        <path d="M564.985 107.837L563.232 107.618C564.029 101.255 565.497 94.9944 567.615 88.9414L569.271 89.52C567.199 95.4572 565.763 101.597 564.985 107.837Z" fill="#00BABA"/>
        <path d="M723.373 175.645L722.015 174.541C725.433 170.312 728.457 165.779 731.051 161L732.593 161.876C729.951 166.74 726.864 171.35 723.373 175.645Z" fill="#00BABA"/>
        <path d="M564.839 130.023L563.599 131.263L640.525 208.189L641.765 206.949L564.839 130.023Z" fill="#00BABA"/>
        <path d="M564.732 107.113L563.493 108.353L663.442 208.302L664.681 207.062L564.732 107.113Z" fill="#00BABA"/>
        <path d="M569.048 88.616L567.808 89.8555L681.943 203.99L683.182 202.75L569.048 88.616Z" fill="#00BABA"/>
        <path d="M576.251 73.0066L575.011 74.2461L697.556 196.79L698.795 195.551L576.251 73.0066Z" fill="#00BABA"/>
        <path d="M585.748 59.7088L584.508 60.9482L710.845 187.285L712.085 186.046L585.748 59.7088Z" fill="#00BABA"/>
        <path d="M597.324 48.4813L596.084 49.7207L722.074 175.71L723.313 174.471L597.324 48.4813Z" fill="#00BABA"/>
        <path d="M611.008 39.3538L609.769 40.5933L731.21 162.034L732.449 160.795L611.008 39.3538Z" fill="#00BABA"/>
        <path d="M627.059 32.6019L625.82 33.8413L737.959 145.98L739.198 144.741L627.059 32.6019Z" fill="#00BABA"/>
        <path d="M646.164 28.9026L644.924 30.1421L741.663 126.881L742.902 125.641L646.164 28.9026Z" fill="#00BABA"/>
        <path d="M670.189 30.1253L668.95 31.3647L740.441 102.856L741.68 101.617L670.189 30.1253Z" fill="#00BABA"/>
        <path d="M745.79 117.39H742.285V119.143H745.79V117.39Z" fill="#00BABA"/>
        <path d="M958.849 119.143H951.75V117.39H958.849V119.143ZM944.651 119.143H937.587V117.39H944.695L944.651 119.143ZM930.444 119.143H923.336V117.39H930.444V119.143ZM916.237 119.143H909.138V117.39H916.237V119.143ZM902.03 119.143H894.932V117.39H902.03V119.143ZM887.832 119.143H880.725V117.39H887.832V119.143ZM873.626 119.143H866.527V117.39H873.626V119.143ZM859.419 119.143H852.32V117.39H859.419V119.143ZM845.212 119.143H838.113V117.39H845.212V119.143ZM831.014 119.143H823.906V117.39H831.014V119.143ZM816.807 119.143H809.708V117.39H816.807V119.143ZM802.6 119.143H795.501V117.39H802.6V119.143ZM788.402 119.143H781.295V117.39H788.402V119.143ZM774.196 119.143H767.097V117.39H774.196V119.143ZM759.989 119.143H752.89V117.39H759.989V119.143Z" fill="#00BABA"/>
        <path d="M969.464 117.39H965.958V119.143H969.464V117.39Z" fill="#00BABA"/>
        <path d="M3.50642 117.39H0.000732422V119.143H3.50642V117.39Z" fill="#00BABA"/>
        <path d="M73.901 119.143H66.8896V117.39H73.901V119.143ZM59.8169 119.143H52.8055V117.39H59.8169V119.143ZM45.7416 119.143H38.7302V117.39H45.7416V119.143ZM31.6574 119.143H24.6461V117.39H31.6574V119.143ZM17.5822 119.143H10.5708V117.39H17.5822V119.143Z" fill="#00BABA"/>
        <path d="M84.4429 117.39H80.9373V119.143H84.4429V117.39Z" fill="#00BABA"/>
        <path d="M323.068 84.6387H325.286V148.617H323.068C322.622 148.617 322.194 148.44 321.878 148.125C321.563 147.809 321.385 147.381 321.385 146.935V86.3214C321.385 85.8751 321.563 85.4471 321.878 85.1315C322.194 84.816 322.622 84.6387 323.068 84.6387Z" fill="white"/>
        <path d="M325.723 149.081H323.093C322.814 149.082 322.537 149.028 322.279 148.922C322.021 148.816 321.786 148.66 321.588 148.463C321.39 148.266 321.233 148.032 321.126 147.774C321.019 147.516 320.963 147.239 320.963 146.96V86.3294C320.963 85.7645 321.188 85.2228 321.587 84.8234C321.987 84.424 322.528 84.1997 323.093 84.1997H325.723V149.081ZM323.093 85.1024C322.761 85.1024 322.442 85.2344 322.207 85.4694C321.972 85.7044 321.84 86.0233 321.84 86.3557V146.986C321.842 147.317 321.975 147.634 322.21 147.867C322.445 148.1 322.762 148.231 323.093 148.231H324.846V85.1288L323.093 85.1024Z" fill="#27304A"/>
        <path d="M222.858 96.9609H321.385V136.321H222.858C222.411 136.321 221.983 136.144 221.668 135.828C221.352 135.513 221.175 135.085 221.175 134.638V98.6437C221.175 98.1974 221.352 97.7694 221.668 97.4538C221.983 97.1382 222.411 96.9609 222.858 96.9609Z" fill="white"/>
        <path d="M321.814 136.759H222.848C222.285 136.757 221.746 136.532 221.348 136.132C220.951 135.733 220.727 135.193 220.727 134.63V98.635C220.73 98.0732 220.954 97.5351 221.351 97.1379C221.748 96.7406 222.286 96.5165 222.848 96.5142H321.814V136.759ZM222.848 97.3906C222.519 97.3929 222.204 97.5246 221.971 97.7575C221.738 97.9904 221.606 98.3057 221.604 98.635V134.63C221.604 134.961 221.735 135.278 221.968 135.513C222.201 135.748 222.517 135.881 222.848 135.883H320.937V97.3906H222.848Z" fill="#27304A"/>
        <path d="M110.326 108.828H215.181V124.454H110.326C109.88 124.454 109.451 124.277 109.136 123.961C108.82 123.646 108.643 123.218 108.643 122.772V110.502C108.645 110.057 108.824 109.631 109.139 109.317C109.454 109.004 109.881 108.828 110.326 108.828Z" fill="white"/>
        <path d="M215.618 124.892H110.316C110.038 124.892 109.762 124.838 109.505 124.731C109.248 124.625 109.014 124.468 108.817 124.271C108.62 124.074 108.464 123.841 108.357 123.583C108.25 123.326 108.196 123.05 108.196 122.772V110.502C108.196 109.938 108.419 109.398 108.816 108.999C109.214 108.6 109.753 108.374 110.316 108.372H215.618V124.892ZM110.316 109.266C109.986 109.268 109.669 109.401 109.436 109.636C109.203 109.871 109.072 110.188 109.072 110.519V122.789C109.074 123.119 109.206 123.434 109.439 123.667C109.672 123.9 109.987 124.031 110.316 124.034H214.742V109.283L110.316 109.266Z" fill="#27304A"/>
        <path d="M219.86 99.6245H221.166V133.656H219.86C219.413 133.656 218.985 133.479 218.67 133.163C218.354 132.847 218.177 132.419 218.177 131.973V101.298C218.177 100.852 218.354 100.424 218.67 100.109C218.985 99.793 219.413 99.6157 219.86 99.6157V99.6245Z" fill="white"/>
        <path d="M221.604 134.13H219.851C219.572 134.131 219.295 134.077 219.037 133.971C218.779 133.865 218.544 133.709 218.346 133.512C218.148 133.315 217.991 133.081 217.884 132.823C217.777 132.565 217.721 132.288 217.721 132.009V101.334C217.721 100.77 217.946 100.228 218.345 99.8285C218.745 99.4291 219.286 99.2046 219.851 99.2046H221.604V134.13ZM219.851 100.099C219.519 100.099 219.2 100.231 218.965 100.466C218.73 100.701 218.598 101.02 218.598 101.352V132.027C218.6 132.358 218.733 132.674 218.968 132.907C219.203 133.14 219.52 133.271 219.851 133.271H220.728V100.116L219.851 100.099Z" fill="#27304A"/>
        <path d="M216.872 101.939H218.178V131.378H216.872C216.425 131.378 215.997 131.201 215.682 130.886C215.366 130.57 215.189 130.142 215.189 129.696V103.622C215.189 103.176 215.366 102.748 215.682 102.432C215.997 102.117 216.425 101.939 216.872 101.939Z" fill="white"/>
        <path d="M218.605 131.79H216.852C216.573 131.79 216.296 131.734 216.039 131.627C215.781 131.52 215.546 131.363 215.349 131.165C215.152 130.967 214.996 130.733 214.89 130.474C214.784 130.216 214.73 129.939 214.731 129.66V103.621C214.731 103.343 214.786 103.067 214.893 102.81C214.999 102.552 215.155 102.319 215.352 102.122C215.549 101.925 215.783 101.768 216.041 101.662C216.298 101.555 216.574 101.5 216.852 101.5H218.605V131.79ZM216.852 102.377C216.523 102.379 216.208 102.511 215.975 102.744C215.742 102.977 215.61 103.292 215.608 103.621V129.66C215.608 129.991 215.738 130.308 215.972 130.543C216.205 130.778 216.521 130.911 216.852 130.913H217.729V102.377H216.852Z" fill="#27304A"/>
        <path d="M106.951 126.181H105.645V107.101H106.951C107.397 107.101 107.825 107.278 108.14 107.594C108.456 107.909 108.633 108.337 108.633 108.784V124.498C108.633 124.944 108.456 125.372 108.14 125.688C107.825 126.003 107.397 126.181 106.951 126.181Z" fill="white"/>
        <path d="M106.95 126.619H105.198V106.663H106.95C107.514 106.665 108.053 106.891 108.451 107.29C108.848 107.689 109.071 108.23 109.071 108.793V124.49C109.072 124.769 109.018 125.046 108.912 125.304C108.806 125.562 108.65 125.797 108.453 125.995C108.256 126.193 108.022 126.35 107.764 126.457C107.506 126.564 107.23 126.619 106.95 126.619ZM106.074 125.743H106.95C107.28 125.743 107.597 125.612 107.83 125.378C108.064 125.145 108.195 124.828 108.195 124.498V108.793C108.195 108.462 108.064 108.144 107.831 107.91C107.598 107.675 107.281 107.542 106.95 107.54H106.074V125.743Z" fill="#27304A"/>
        <path d="M170.245 124.682C170.245 125.51 170.916 126.181 171.743 126.181C172.571 126.181 173.242 125.51 173.242 124.682V108.6C173.242 107.772 172.571 107.101 171.743 107.101C170.916 107.101 170.245 107.772 170.245 108.6V124.682Z" fill="white"/>
        <path d="M171.745 126.619C171.233 126.619 170.742 126.416 170.379 126.055C170.016 125.694 169.811 125.203 169.808 124.691V108.6C169.808 108.086 170.012 107.594 170.376 107.231C170.739 106.867 171.232 106.663 171.745 106.663C172.257 106.665 172.748 106.871 173.109 107.234C173.47 107.597 173.673 108.088 173.673 108.6V124.691C173.671 125.202 173.467 125.691 173.106 126.052C172.745 126.413 172.256 126.617 171.745 126.619ZM171.745 107.54C171.464 107.54 171.194 107.651 170.995 107.85C170.797 108.049 170.685 108.319 170.685 108.6V124.691C170.687 124.971 170.8 125.238 170.998 125.435C171.197 125.632 171.466 125.743 171.745 125.743C172.024 125.743 172.292 125.632 172.489 125.435C172.686 125.238 172.797 124.97 172.797 124.691V108.6C172.797 108.32 172.686 108.052 172.489 107.853C172.293 107.655 172.025 107.542 171.745 107.54Z" fill="#27304A"/>
        <path d="M103.962 128.95H100.982V104.313H103.962C104.409 104.313 104.837 104.491 105.152 104.806C105.468 105.122 105.645 105.55 105.645 105.996V127.267C105.645 127.713 105.468 128.141 105.152 128.457C104.837 128.773 104.409 128.95 103.962 128.95Z" fill="white"/>
        <path d="M103.953 129.406H100.535V103.884H103.953C104.515 103.884 105.055 104.108 105.452 104.505C105.85 104.903 106.074 105.443 106.074 106.005V127.276C106.075 127.555 106.021 127.832 105.915 128.09C105.809 128.349 105.653 128.584 105.456 128.781C105.258 128.979 105.024 129.136 104.766 129.243C104.508 129.351 104.232 129.406 103.953 129.406ZM101.411 128.529H103.953C104.117 128.529 104.279 128.497 104.431 128.434C104.583 128.371 104.72 128.278 104.836 128.162C104.951 128.045 105.043 127.907 105.105 127.755C105.167 127.603 105.198 127.44 105.197 127.276V106.005C105.197 105.675 105.066 105.359 104.833 105.125C104.599 104.892 104.283 104.761 103.953 104.761H101.411V128.529Z" fill="#27304A"/>
        <path d="M99.2899 133.332H91.963V99.9749H99.2899C99.5109 99.9749 99.7297 100.019 99.9338 100.103C100.138 100.188 100.324 100.312 100.48 100.468C100.636 100.624 100.76 100.81 100.845 101.014C100.929 101.218 100.973 101.437 100.973 101.658V131.64C100.973 132.086 100.795 132.514 100.48 132.83C100.164 133.146 99.7362 133.323 99.2899 133.323V133.332Z" fill="white"/>
        <path d="M99.2819 133.762H91.5168V99.5288H99.2819C99.8452 99.5288 100.386 99.752 100.785 100.15C101.184 100.547 101.409 101.086 101.412 101.65V131.632C101.412 132.197 101.187 132.739 100.788 133.138C100.388 133.537 99.8468 133.762 99.2819 133.762ZM92.3933 132.885H99.2819C99.6143 132.885 99.9332 132.753 100.168 132.518C100.403 132.283 100.535 131.964 100.535 131.632V101.65C100.533 101.319 100.4 101.002 100.165 100.769C99.9303 100.536 99.6128 100.405 99.2819 100.405H92.3933V132.885Z" fill="#27304A"/>
        <path d="M88.2817 133.314H91.9626V99.9573H88.2817V133.314Z" fill="white"/>
        <path d="M92.3938 133.762H87.8364V99.5288H92.3938V133.762ZM88.7128 132.885H91.5173V100.405H88.7128V132.885Z" fill="#27304A"/>
        <path d="M88.1245 129.994C87.1483 129.994 86.212 129.606 85.5217 128.916C84.8313 128.225 84.4436 127.289 84.4436 126.313V106.97C84.4436 106.487 84.5388 106.008 84.7238 105.561C84.9088 105.115 85.1799 104.709 85.5217 104.367C85.8635 104.026 86.2693 103.754 86.7159 103.569C87.1625 103.384 87.6411 103.289 88.1245 103.289V129.994Z" fill="white"/>
        <path d="M88.5615 130.432H88.1233C87.0308 130.432 85.9831 129.997 85.2106 129.225C84.4381 128.452 84.0042 127.405 84.0042 126.312V106.961C84.0065 105.869 84.4412 104.823 85.2132 104.051C85.9852 103.279 87.0315 102.844 88.1233 102.842H88.5615V130.432ZM87.6851 103.762C86.9083 103.866 86.1957 104.249 85.6799 104.839C85.164 105.429 84.88 106.186 84.8806 106.97V126.312C84.8779 127.098 85.1609 127.857 85.677 128.449C86.193 129.041 86.9068 129.424 87.6851 129.529V103.762Z" fill="#27304A"/>
        <path d="M650.612 143.684H648.395V89.5996H650.612C650.833 89.5973 651.053 89.6385 651.258 89.7209C651.463 89.8033 651.65 89.9253 651.807 90.0799C651.965 90.2346 652.091 90.4189 652.178 90.6221C652.265 90.8254 652.31 91.0437 652.313 91.2647V141.983C652.315 142.207 652.273 142.429 652.188 142.637C652.103 142.844 651.978 143.032 651.82 143.191C651.662 143.349 651.473 143.474 651.266 143.559C651.059 143.643 650.836 143.686 650.612 143.684Z" fill="white"/>
        <path d="M650.602 144.13H647.973V89.1611H650.602C651.165 89.1611 651.704 89.3845 652.102 89.7823C652.5 90.18 652.723 90.7197 652.723 91.2822V142.018C652.721 142.579 652.496 143.116 652.099 143.512C651.701 143.908 651.163 144.13 650.602 144.13ZM648.85 143.254H650.602C650.767 143.257 650.931 143.228 651.085 143.168C651.238 143.107 651.378 143.017 651.496 142.902C651.615 142.787 651.709 142.65 651.773 142.498C651.838 142.346 651.872 142.183 651.873 142.018V91.2995C651.873 90.9695 651.742 90.6531 651.509 90.4197C651.275 90.1863 650.959 90.0551 650.629 90.0551H648.876L648.85 143.254Z" fill="#27304A"/>
        <path d="M646.432 82.3862H326.941C325.862 82.3862 324.987 83.2612 324.987 84.3406V148.942C324.987 150.021 325.862 150.896 326.941 150.896H646.432C647.512 150.896 648.387 150.021 648.387 148.942V84.3406C648.387 83.2612 647.512 82.3862 646.432 82.3862Z" fill="white"/>
        <path d="M646.431 151.333H326.94C326.626 151.335 326.315 151.274 326.025 151.155C325.735 151.035 325.471 150.86 325.249 150.638C325.026 150.417 324.85 150.154 324.73 149.864C324.609 149.574 324.547 149.263 324.547 148.95V84.3399C324.547 83.7053 324.799 83.0967 325.248 82.648C325.697 82.1993 326.305 81.9473 326.94 81.9473H646.431C647.064 81.9496 647.672 82.2024 648.12 82.6506C648.568 83.0988 648.821 83.706 648.823 84.3399V148.95C648.821 149.583 648.568 150.189 648.119 150.636C647.671 151.083 647.064 151.333 646.431 151.333ZM326.94 82.8237C326.538 82.8237 326.152 82.9835 325.868 83.2679C325.583 83.5522 325.424 83.9378 325.424 84.3399V148.95C325.424 149.148 325.463 149.345 325.539 149.529C325.616 149.712 325.728 149.879 325.868 150.019C326.009 150.159 326.176 150.27 326.36 150.345C326.544 150.42 326.741 150.458 326.94 150.457H646.431C646.831 150.457 647.215 150.299 647.5 150.016C647.784 149.734 647.944 149.35 647.947 148.95V84.3399C647.944 83.9385 647.784 83.5543 647.5 83.2705C647.216 82.9866 646.832 82.826 646.431 82.8237H326.94Z" fill="#27304A"/>
        <path d="M646.859 128.994H326.51C325.91 128.994 325.423 129.48 325.423 130.08V149.37C325.423 149.971 325.91 150.457 326.51 150.457H646.859C647.46 150.457 647.946 149.971 647.946 149.37V130.08C647.946 129.48 647.46 128.994 646.859 128.994Z" fill="#FCBB01"/>
        <path d="M332.41 82.3862H331.533V150.896H332.41V82.3862Z" fill="#27304A"/>
        <path d="M334.891 82.3862H334.015V150.896H334.891V82.3862Z" fill="#27304A"/>
        <path d="M593.836 82.3862H592.96V150.896H593.836V82.3862Z" fill="#27304A"/>
        <path d="M596.318 82.3862H595.441V150.896H596.318V82.3862Z" fill="#27304A"/>
        <path d="M604.539 82.3862H603.662V150.896H604.539V82.3862Z" fill="#27304A"/>
        <path d="M607.019 82.3862H606.143V150.896H607.019V82.3862Z" fill="#27304A"/>
        <path d="M642.067 82.3862H641.19V150.896H642.067V82.3862Z" fill="#27304A"/>
        <path d="M644.546 82.3862H643.67V150.896H644.546V82.3862Z" fill="#27304A"/>
        <path d="M635.081 82.3862H634.204V150.896H635.081V82.3862Z" fill="#27304A"/>
        <path d="M364.303 82.3862H363.427V150.896H364.303V82.3862Z" fill="#27304A"/>
        <path d="M194.207 108.828H193.331V124.454H194.207V108.828Z" fill="#27304A"/>
        <path d="M215.18 111.983H108.712V121.895H215.18V111.983Z" fill="#27304A"/>
        <path d="M334.451 109.502H215.179V129.827H334.451V109.502Z" fill="#27304A"/>
        <path d="M363.751 94.4985H334.453V142.036H363.751V94.4985Z" fill="#27304A"/>
        <path d="M486.686 94.4985H366.756V142.036H486.686V94.4985Z" fill="#27304A"/>
        <path d="M108.519 110.668H84.4438V121.895H108.519V110.668Z" fill="#27304A"/>
        <path d="M317.921 96.9609L310.559 129.827H321.383V96.9609H317.921Z" fill="#27304A"/>
        <path d="M317.553 146.461C323.154 146.461 327.693 141.921 327.693 136.321C327.693 130.721 323.154 126.181 317.553 126.181C311.953 126.181 307.413 130.721 307.413 136.321C307.413 141.921 311.953 146.461 317.553 146.461Z" fill="white"/>
        <path d="M317.546 146.908C314.741 146.906 312.052 145.791 310.068 143.807C308.085 141.824 306.97 139.135 306.968 136.33C306.97 133.524 308.085 130.834 310.068 128.849C312.051 126.865 314.74 125.747 317.546 125.743C320.352 125.747 323.041 126.865 325.024 128.849C327.007 130.834 328.122 133.524 328.124 136.33C328.122 139.135 327.007 141.824 325.023 143.807C323.04 145.791 320.351 146.906 317.546 146.908ZM317.546 126.619C314.973 126.624 312.506 127.649 310.688 129.469C308.869 131.289 307.846 133.757 307.844 136.33C307.849 138.902 308.872 141.367 310.691 143.185C312.509 145.004 314.974 146.027 317.546 146.032C320.118 146.03 322.585 145.007 324.404 143.188C326.223 141.369 327.246 138.902 327.248 136.33C327.248 133.756 326.226 131.287 324.407 129.466C322.588 127.646 320.12 126.621 317.546 126.619Z" fill="#27304A"/>
        <path d="M317.555 143.491C321.514 143.491 324.724 140.281 324.724 136.321C324.724 132.362 321.514 129.152 317.555 129.152C313.595 129.152 310.385 132.362 310.385 136.321C310.385 140.281 313.595 143.491 317.555 143.491Z" fill="white"/>
        <path d="M317.545 143.937C315.528 143.934 313.595 143.132 312.168 141.706C310.742 140.28 309.94 138.346 309.938 136.329C309.938 134.311 310.739 132.375 312.165 130.947C313.592 129.519 315.527 128.716 317.545 128.713C319.563 128.716 321.498 129.519 322.925 130.947C324.351 132.375 325.152 134.311 325.152 136.329C325.15 138.346 324.348 140.28 322.922 141.706C321.496 143.132 319.562 143.934 317.545 143.937ZM317.545 129.59C315.76 129.594 314.049 130.306 312.788 131.569C311.526 132.833 310.816 134.544 310.814 136.329C310.816 138.114 311.526 139.825 312.788 141.086C314.05 142.348 315.761 143.058 317.545 143.06C319.329 143.058 321.04 142.348 322.302 141.086C323.564 139.825 324.274 138.114 324.276 136.329C324.276 134.543 323.567 132.831 322.305 131.567C321.043 130.303 319.331 129.592 317.545 129.59Z" fill="#27304A"/>
        <path d="M317.545 133.043C319.111 133.045 320.633 133.561 321.879 134.511C323.125 135.46 324.025 136.792 324.442 138.301C324.623 137.671 324.714 137.02 324.714 136.364C324.714 134.462 323.959 132.638 322.615 131.292C321.27 129.946 319.447 129.189 317.545 129.187C315.643 129.189 313.819 129.946 312.475 131.292C311.131 132.638 310.376 134.462 310.376 136.364C310.375 137.02 310.467 137.671 310.647 138.301C311.065 136.792 311.965 135.46 313.211 134.511C314.456 133.561 315.979 133.045 317.545 133.043Z" fill="#27304A"/>
        <path d="M317.555 140.939C320.105 140.939 322.173 138.871 322.173 136.32C322.173 133.77 320.105 131.702 317.555 131.702C315.004 131.702 312.936 133.77 312.936 136.32C312.936 138.871 315.004 140.939 317.555 140.939Z" fill="white"/>
        <path d="M317.544 141.378C316.205 141.378 314.921 140.846 313.974 139.899C313.028 138.952 312.496 137.668 312.496 136.329C312.496 134.99 313.027 133.705 313.974 132.757C314.92 131.809 316.204 131.275 317.544 131.272C318.885 131.275 320.169 131.808 321.117 132.756C322.065 133.704 322.599 134.989 322.601 136.329C322.599 137.669 322.065 138.953 321.117 139.9C320.169 140.846 318.884 141.378 317.544 141.378ZM317.544 132.149C316.437 132.151 315.376 132.593 314.594 133.376C313.812 134.16 313.372 135.222 313.372 136.329C313.372 137.436 313.812 138.497 314.594 139.279C315.376 140.062 316.438 140.501 317.544 140.501C318.651 140.501 319.713 140.062 320.497 139.28C321.281 138.498 321.722 137.437 321.725 136.329C321.722 135.221 321.281 134.16 320.497 133.376C319.714 132.593 318.652 132.151 317.544 132.149Z" fill="#27304A"/>
        <path d="M331.979 94.4985C331.979 94.4985 331.103 99.126 325.275 98.6703V110.108H331.979V94.4985Z" fill="#27304A"/>
        <path d="M334.451 129.152V132.798H331.979V144.06L327.694 151.273C327.052 151.273 326.437 151.018 325.983 150.565C325.53 150.111 325.275 149.496 325.275 148.854V129.152H334.451Z" fill="#27304A"/>
        <path d="M486.687 94.4984L475.758 88.0215C475.758 88.0215 572.663 127.346 584.942 95.4623H593.391V142.018H565.109L544.828 136.68L550.911 142.018H486.687" fill="#27304A"/>
        <path d="M604.101 95.5317H598.579V142.035H604.101V95.5317Z" fill="#27304A"/>
        <path d="M641.628 95.5317H637.457V142.035H641.628V95.5317Z" fill="#27304A"/>
        <path d="M644.407 89.9312H641.33V147.626H644.407V89.9312Z" fill="#27304A"/>
        <path d="M648.394 97.2588H646.08V140.3H648.394V97.2588Z" fill="#27304A"/>
        <path d="M652.295 104.472H648.386V133.096H652.295V104.472Z" fill="#27304A"/>
        <path d="M644.407 82.3862H641.33V87.1189H644.407V82.3862Z" fill="#27304A"/>
        <path d="M606.581 144.585C618.465 137.337 629.938 131.255 634.627 144.585V92.9814C623.917 108.634 615.485 98.0033 606.581 92.9814V144.585Z" fill="#27304A"/>
        <path d="M491.156 82.4214H580.402C580.402 82.4214 581.296 108.986 491.156 82.4214Z" fill="#27304A"/>
        <path d="M308.318 160.037V164.542C308.32 164.996 308.231 165.445 308.058 165.865C307.885 166.284 307.63 166.666 307.31 166.986C306.989 167.307 306.608 167.562 306.188 167.735C305.769 167.908 305.319 167.996 304.865 167.995H296.978L296.82 168.407C296.272 169.809 295.375 171.047 294.214 172.004C293.052 172.961 291.666 173.606 290.185 173.876L269.721 177.61L265.812 181.22L182.683 219.38C181.82 219.777 180.882 219.983 179.932 219.984H170.72C170.155 219.982 169.604 220.166 169.154 220.509C168.704 220.851 168.38 221.332 168.231 221.878L139.905 324.848L114.068 299.914L119.578 282.083C120.659 278.584 117.241 275.375 113.817 276.673L97.1474 282.993L42.2808 228.126L98.6785 197.627L118.345 186.996C118.667 186.818 119.029 186.724 119.397 186.724C119.828 186.725 120.249 186.853 120.607 187.092C120.931 187.31 121.297 187.461 121.681 187.535C122.065 187.609 122.46 187.605 122.843 187.523C123.226 187.442 123.588 187.284 123.908 187.059C124.229 186.835 124.501 186.548 124.708 186.216L126.119 183.955C124.805 181.32 124.084 178.429 124.006 175.486C123.929 172.542 124.498 169.617 125.672 166.917L144.191 124.428C144.955 122.666 145.349 120.766 145.348 118.846V116.356C145.348 114.836 145.659 113.332 146.262 111.936C146.865 110.541 147.747 109.283 148.854 108.241L152.009 105.27C153.45 103.924 154.572 102.271 155.291 100.435C156.009 98.5978 156.308 96.6233 156.163 94.6563C155.858 91.6084 156.062 88.5311 156.768 85.5503C158.573 78.7844 164.585 80.5721 164.585 80.5721C177.732 94.4634 172.166 106.681 167.977 112.474C165.934 115.318 164.778 118.703 164.655 122.202L164.366 129.994C164.34 130.71 164.467 131.424 164.739 132.088C165.011 132.752 165.422 133.349 165.944 133.841L173.586 141.045C174.364 141.782 175.39 142.2 176.461 142.22L297.477 144.139C299.6 144.175 301.625 145.034 303.126 146.535C304.627 148.037 305.487 150.062 305.523 152.185C305.532 152.69 305.494 153.194 305.409 153.692L304.909 156.61C305.407 156.605 305.9 156.708 306.354 156.912C306.808 157.116 307.213 157.417 307.539 157.794C308.058 158.425 308.334 159.22 308.318 160.037Z" fill="#27304A"/>
        <path d="M86.0905 252.886L82.0327 258.066L80.1572 257.811C79.7127 257.753 79.2613 257.837 78.8672 258.051C78.473 258.264 78.1563 258.596 77.9621 259C77.7679 259.404 76.6335 262.138 76.7129 262.579C76.7129 262.579 77.304 263.182 77.6269 263.493L78.194 264.06L42.2607 228.127L98.6584 197.627C101.673 205.428 109.061 231.045 86.0905 252.886Z" fill="white"/>
        <path d="M55.4846 222.162L54.2451 223.402L91.9057 261.062L93.1452 259.823L55.4846 222.162Z" fill="#00BABA"/>
        <path d="M305.459 152.148C295.17 147.188 211.402 151.921 211.402 151.921L192.471 154.629L198.781 150.79C181.2 148.538 180.753 156.881 174.242 156.653C167.73 156.425 158.545 144.638 158.256 144.269L165.907 147.188L152.313 129.607V118.117L164.487 94.6815V80.5361C177.633 94.4274 172.068 106.645 167.879 112.438C165.836 115.282 164.68 118.667 164.557 122.166L164.268 129.957C164.241 130.674 164.368 131.388 164.641 132.052C164.913 132.715 165.323 133.313 165.845 133.805L173.488 141.009C174.266 141.746 175.291 142.164 176.362 142.183L297.379 144.103C299.507 144.13 301.542 144.985 303.05 146.487C304.559 147.989 305.423 150.02 305.459 152.148Z" fill="#00BABA"/>
        <path d="M232.726 169.275L230.719 170.861L230.219 171.255C230.042 171.406 229.848 171.535 229.641 171.641C229.502 171.685 229.354 171.683 229.216 171.636C229.079 171.589 228.96 171.498 228.879 171.378C228.78 171.253 228.727 171.099 228.727 170.94C228.727 170.781 228.78 170.627 228.879 170.502L230.149 168.381L230.789 167.32C230.997 166.937 231.247 166.579 231.534 166.251C232.148 165.568 232.955 165.088 233.848 164.875C234.071 164.825 234.296 164.787 234.523 164.761L235.136 164.691L236.354 164.542C239.609 164.11 242.84 163.558 246.047 162.886C249.264 162.237 252.463 161.466 255.688 160.651C258.913 159.836 262.033 158.959 265.171 158.021L265.758 157.846L266.047 157.75L266.468 157.662C266.702 157.616 266.94 157.596 267.178 157.601H267.8L270.272 157.487L275.215 157.259L285.101 156.882C291.692 156.637 298.247 156.514 304.882 156.435C305.379 156.487 305.865 156.62 306.319 156.829C306.768 157.043 307.159 157.362 307.458 157.758C307.131 157.401 306.722 157.127 306.266 156.961C305.811 156.809 305.335 156.727 304.855 156.716C298.282 157.303 291.709 157.855 285.127 158.284L275.25 158.915L270.316 159.196L267.844 159.327H267.231C267.057 159.327 266.884 159.341 266.714 159.371C266.652 159.367 266.591 159.367 266.53 159.371L266.231 159.467L265.636 159.652C259.306 161.585 252.868 163.141 246.354 164.314C243.085 164.866 239.799 165.348 236.486 165.594L235.25 165.681C234.857 165.695 234.465 165.73 234.076 165.787C233.344 165.924 232.668 166.271 232.13 166.786C231.607 167.392 231.127 168.033 230.693 168.705L229.264 170.721C229.226 170.771 229.205 170.833 229.205 170.896C229.205 170.959 229.226 171.021 229.264 171.071C229.299 171.13 229.352 171.176 229.415 171.203C229.478 171.229 229.548 171.236 229.615 171.22C229.789 171.136 229.957 171.036 230.114 170.922L230.649 170.572L232.726 169.275Z" fill="#E7ECF4"/>
        <path d="M296.923 167.994C290.496 168.678 284.037 169.262 277.546 169.747C271.086 170.229 264.618 170.624 258.15 170.974L253.295 171.211C252.48 171.211 251.665 171.272 250.911 171.351C250.145 171.435 249.384 171.564 248.632 171.736C247.878 171.911 247.137 172.14 246.415 172.42L244.172 173.297L239.649 175.049C233.619 177.433 227.549 179.712 221.437 181.885C227.28 179.081 233.175 176.382 239.123 173.787L243.575 171.842L245.828 170.878C246.61 170.556 247.412 170.287 248.229 170.071C249.858 169.682 251.524 169.473 253.199 169.449L258.054 169.169C264.522 168.844 270.999 168.538 277.476 168.336C283.952 168.134 290.464 167.994 296.923 167.994Z" fill="#E7ECF4"/>
        <path d="M269.693 177.609C267.607 177.767 265.513 177.854 263.418 177.968C262.375 178.021 261.324 178.073 260.281 178.108C259.279 178.132 258.286 178.292 257.327 178.582C256.377 178.853 255.469 179.255 254.628 179.774C254.207 180.037 253.821 180.326 253.366 180.65C252.91 180.974 252.489 181.246 252.007 181.527C250.156 182.647 248.172 183.531 246.1 184.156C241.981 185.243 237.949 186.154 233.83 187.127C229.711 188.1 225.662 188.959 221.56 189.756L221.762 189.66C220.272 190.685 218.782 191.711 217.266 192.701L216.144 193.455C215.768 193.646 215.443 193.926 215.198 194.27C214.99 194.649 214.93 195.091 215.029 195.511C215.127 195.932 215.378 196.301 215.732 196.548C215.298 196.336 214.963 195.963 214.8 195.508C214.636 195.053 214.656 194.552 214.856 194.112C215.086 193.688 215.417 193.327 215.82 193.06L216.871 192.184C218.256 191.027 219.658 189.896 221.07 188.766L221.148 188.713L221.271 188.669C225.303 187.547 229.361 186.487 233.41 185.453L239.545 183.945C241.56 183.446 243.664 182.999 245.618 182.482C247.569 181.932 249.451 181.162 251.227 180.186C252.104 179.704 252.919 179.143 253.918 178.573C254.888 178.042 255.926 177.644 257.003 177.39C258.071 177.146 259.168 177.048 260.263 177.101C261.306 177.101 262.358 177.179 263.401 177.241C265.513 177.363 267.607 177.451 269.693 177.609Z" fill="#E7ECF4"/>
        <path d="M271.027 97.1892L255.093 80.9404H240.238V80.064H255.461L255.584 80.1954L271.649 96.5757L271.027 97.1892Z" fill="#27304A"/>
        <path d="M240.236 77.6533H234.53V83.3588H240.236V77.6533Z" fill="#27304A"/>
        <path d="M618.43 82.6929L617.808 82.0794L634.933 64.6211H650.157V65.4975H635.302L618.43 82.6929Z" fill="#27304A"/>
        <path d="M650.155 67.916H655.861V62.2105H650.155V67.916Z" fill="#27304A"/>
        <path d="M394.771 44.708L387.154 58.0253H402.374L394.771 44.708Z" fill="#F1646D"/>
        <path d="M307.406 82.2984L314.356 70.2651H300.465L307.406 82.2984Z" fill="#FCBB01"/>
        <path d="M465.434 15.7246H453.059V28.0997H465.434V15.7246Z" fill="#FCBB01"/>
        <path d="M786.683 17.1221H774.308V29.4971H786.683V17.1221Z" fill="#FCBB01"/>
        <path d="M761.668 227.557H749.293V239.932H761.668V227.557Z" fill="#F1646D"/>
        <path d="M546.01 40.9033H538.4V48.5132H546.01V40.9033Z" fill="#F1646D"/>
        <path d="M506.495 203.489C506.492 205.175 505.868 206.8 504.742 208.055C503.606 209.309 502.044 210.096 500.36 210.264C483.104 212.017 433.796 217.836 411.141 227.95C411.141 227.95 371.64 237.976 354.173 247.678C352.07 248.852 349.673 249.394 347.269 249.239C344.865 249.083 342.558 248.237 340.624 246.802L336.794 243.945L334.655 245.189C334.157 245.478 333.731 245.877 333.411 246.355C333.124 246.776 332.926 247.251 332.828 247.751C332.731 248.251 332.735 248.766 332.841 249.264C332.918 249.659 333.06 250.038 333.262 250.386C333.459 250.733 333.562 251.126 333.56 251.526C333.561 252 333.414 252.462 333.139 252.849C333.089 252.923 333.033 252.994 332.972 253.059L273.919 318.09L266.031 311.543L271.991 296.32C272.167 295.874 272.236 295.394 272.193 294.917C272.152 294.439 272.002 293.977 271.752 293.567C271.502 293.158 271.161 292.812 270.754 292.557C270.348 292.302 269.888 292.145 269.411 292.098C268.933 292.051 268.451 292.116 268.003 292.288L251.351 299.615L221.615 275.075L186.444 246.013L296.268 209.081C297.81 208.563 299.438 208.346 301.062 208.441L304.34 208.625C304.632 208.647 304.925 208.647 305.216 208.625C306.018 208.564 306.801 208.35 307.521 207.994C308.27 207.628 308.94 207.119 309.493 206.495C310.044 205.886 310.47 205.174 310.747 204.4C310.808 204.216 310.86 204.032 310.913 203.848L311.395 202.008C311.856 200.231 312.682 198.569 313.819 197.128C314.957 195.688 316.382 194.499 318.003 193.638L359.064 171.806L379.221 170.93L383.288 170.755C384.146 170.715 385 170.601 385.838 170.413L386.715 170.202C389.651 169.501 394.743 168.038 397.67 165.873C398.494 165.244 399.518 164.932 400.553 164.997C402.563 165.157 404.582 165.157 406.592 164.997C409.088 164.809 411.549 164.294 413.91 163.463C416.909 162.345 420.079 161.752 423.279 161.71C425.636 161.71 427.889 161.982 428.678 163.033C430.073 164.867 430.828 167.109 430.825 169.414C430.833 171.754 430.07 174.031 428.656 175.895C427.242 177.759 425.254 179.106 422.999 179.729L418.941 180.851L407.819 180.974L398.652 181.079L426.934 189.843L436.232 191.386C438.901 191.831 441.633 191.712 444.252 191.035C450.983 189.282 465.593 186.399 476.18 191.035H490.904C492.009 191.035 493.101 191.277 494.103 191.743C495.105 192.21 495.993 192.889 496.706 193.734L498.713 196.136H499.151C500.752 196.142 502.307 196.676 503.575 197.655C504.842 198.634 505.752 200.004 506.162 201.552C506.359 202.18 506.471 202.831 506.495 203.489Z" fill="#00BABA"/>
        <path d="M415.252 182.928L415.331 183.375H415.147H414.989L414.735 183.436C414.755 183.421 414.772 183.403 414.788 183.384C414.967 183.26 415.125 183.105 415.252 182.928Z" fill="#FB573E"/>
        <path d="M430.894 169.387C430.902 171.727 430.14 174.005 428.726 175.869C427.311 177.733 425.323 179.08 423.068 179.703L419.01 180.825L407.888 180.947C409.72 180.027 411.604 178.45 412.27 176.627C412.674 175.522 412.139 174.611 411.578 173.612C410.63 172.03 409.582 170.511 408.44 169.063C407.489 167.9 406.882 166.495 406.688 165.005C409.184 164.818 411.644 164.302 414.006 163.472C417.005 162.354 420.174 161.761 423.375 161.719C425.732 161.719 427.984 161.99 428.773 163.042C430.152 164.87 430.897 167.098 430.894 169.387Z" fill="#27304A"/>
        <path d="M394.217 179.649C393.656 180.675 391.781 181.06 390.712 180.903C388.249 180.535 386.417 179.071 384.533 177.555C382.599 176.115 380.99 174.284 379.809 172.182C379.587 171.775 379.399 171.35 379.248 170.911L383.315 170.736C384.173 170.697 385.027 170.582 385.865 170.394L386.741 170.184C386.478 171.212 386.346 172.269 386.347 173.33C386.715 175.705 388.827 177.274 390.799 178.317C391.856 178.949 393.011 179.4 394.217 179.649Z" fill="#27304A"/>
        <path d="M378.739 180.299C380.219 181 381.57 181.945 382.736 183.095C383.938 184.218 384.893 185.579 385.54 187.091C384.357 185.943 383.27 184.821 382.122 183.726C380.974 182.63 379.826 181.535 378.739 180.299Z" fill="#27304A"/>
        <path d="M364.244 185.162C365.588 184.987 366.929 184.873 368.267 184.821C368.95 184.821 369.59 184.759 370.309 184.75C371.059 184.781 371.787 185.018 372.412 185.434C373.032 185.851 373.528 186.426 373.85 187.099C374.139 187.704 374.446 188.309 374.726 188.913C375.31 190.135 375.836 191.376 376.304 192.638C375.532 191.534 374.805 190.395 374.121 189.238C373.78 188.659 373.455 188.072 373.122 187.485C372.848 186.95 372.441 186.494 371.939 186.162C371.441 185.827 370.864 185.627 370.265 185.583L368.276 185.496C366.926 185.417 365.585 185.329 364.244 185.162Z" fill="#27304A"/>
        <path d="M388.432 188.555L391.543 188.388C392.58 188.261 393.627 188.261 394.664 188.388C395.181 188.494 395.682 188.668 396.153 188.905C396.627 189.151 397.03 189.449 397.494 189.72L400.124 191.377H400.071L415.706 192.078H415.794L415.864 192.148L422.805 199.475L422.472 199.414L433.48 193.778L436.232 192.367L436.916 192.017C437.043 191.949 437.175 191.89 437.31 191.842C437.445 191.785 437.586 191.743 437.731 191.719C438.262 191.613 438.802 191.563 439.344 191.57C440.353 191.606 441.364 191.536 442.358 191.359C443.349 191.175 444.348 190.904 445.373 190.702L448.336 190.115L445.61 191.421L423.699 201.938L423.48 202.043L423.279 201.903L414.514 195.829L414.751 195.908L406.679 195.671L406.934 195.593L402.376 198.721C401.527 199.269 400.529 199.542 399.519 199.503C398.509 199.464 397.536 199.114 396.732 198.502C396.353 198.2 396.004 197.863 395.689 197.494L394.751 196.486L392.867 194.471C392.338 193.795 391.622 193.289 390.807 193.016C390.409 192.883 389.992 192.815 389.572 192.814H388.196L366.127 193.104L344.059 193.349C342.236 193.349 340.361 193.349 338.564 193.436C337.673 193.569 336.843 193.966 336.18 194.576C335.558 195.207 334.971 195.952 334.366 196.636L327.162 204.997L334.217 196.504C334.822 195.803 335.356 195.075 335.97 194.401C336.659 193.741 337.534 193.307 338.476 193.156C340.352 193.007 342.166 193.034 344.015 192.963L366.075 192.481L388.143 192.043H389.528C390.031 192.043 390.531 192.123 391.009 192.28C391.95 192.594 392.782 193.169 393.41 193.936L395.295 195.952L396.241 196.951C396.526 197.271 396.84 197.565 397.179 197.827C397.849 198.337 398.66 198.626 399.501 198.656C400.342 198.686 401.172 198.455 401.877 197.994L406.408 194.865L406.522 194.795H406.662L414.734 195.005H414.865L414.97 195.076L423.734 201.21H423.314L445.268 190.781L445.514 191.5C444.514 191.692 443.515 191.955 442.481 192.139C441.443 192.322 440.388 192.393 439.335 192.35C438.847 192.353 438.36 192.397 437.88 192.481C437.769 192.503 437.66 192.535 437.556 192.578C437.448 192.618 437.342 192.665 437.24 192.718L436.548 193.06L433.787 194.445L422.718 199.966L422.525 200.062L422.385 199.905L415.514 192.508L415.671 192.586L400.054 191.631L397.424 189.878C396.986 189.607 396.548 189.291 396.11 189.054C395.654 188.812 395.167 188.632 394.664 188.52C393.636 188.374 392.594 188.35 391.561 188.45L388.432 188.555Z" fill="#27304A"/>
        <path d="M323.621 201.666C324.947 199.617 326.412 197.661 328.003 195.811C328.396 195.263 328.92 194.823 329.528 194.531C330.165 194.264 330.871 194.205 331.544 194.365C332.182 194.535 332.759 194.881 333.209 195.364C333.647 195.785 334.085 196.188 334.524 196.635C333.98 196.346 333.472 196.013 332.946 195.706C332.5 195.357 331.972 195.128 331.413 195.04C330.887 194.968 330.353 195.057 329.879 195.294C329.392 195.543 328.978 195.915 328.678 196.372C327.112 198.247 325.422 200.015 323.621 201.666Z" fill="#27304A"/>
        <g opacity="0.66">
            <path opacity="0.66" d="M395.514 188.896L402.937 197.81L406.662 195.242L415.032 195.671L423.516 201.552L415.707 192.315L400.08 191.482L395.514 188.896Z" fill="#27304A"/>
            <path opacity="0.66" d="M395.515 188.925C396.794 190.459 398.091 191.94 399.371 193.386C400.651 194.832 401.913 196.234 403.131 197.671H402.789L406.479 195.042L406.558 194.981H406.68C409.468 195.077 412.263 195.218 415.05 195.349H415.164L415.252 195.419L423.762 201.265L423.184 201.896L415.41 192.623L415.681 192.755C413.052 192.615 410.475 192.413 407.873 192.246C405.27 192.08 402.666 191.896 400.063 191.694H400.002C398.547 190.748 397.057 189.801 395.515 188.925ZM395.515 188.925C396.97 189.749 398.556 190.529 400.142 191.396H400.081C402.71 191.466 405.34 191.563 407.899 191.668C410.458 191.773 413.157 191.852 415.716 191.984H415.883L415.988 192.106L423.876 201.309L426.085 203.894L423.297 201.949L414.84 196.041L415.042 196.103C412.255 195.954 409.468 195.796 406.68 195.603L406.882 195.551L403.113 198.057L402.921 198.197L402.772 198.013C401.518 196.48 400.291 194.92 399.108 193.395C397.925 191.87 396.698 190.345 395.515 188.925Z" fill="#27304A"/>
        </g>
        <path d="M506.496 203.489C506.492 205.175 505.868 206.8 504.743 208.056C503.606 209.309 502.045 210.096 500.361 210.264C483.104 212.017 433.797 217.836 411.141 227.95C411.141 227.95 371.641 237.977 354.174 247.678C352.071 248.853 349.673 249.395 347.27 249.239C344.866 249.084 342.559 248.237 340.624 246.802L336.794 243.945L333.411 246.355L331.536 247.696L332.842 249.265L334.542 251.307L333.14 252.849L273.92 318.09L266.032 311.543L271.773 296.118C271.938 295.672 271.971 295.188 271.867 294.724C271.764 294.259 271.529 293.835 271.19 293.501C270.852 293.166 270.424 292.937 269.958 292.84C269.492 292.744 269.009 292.783 268.565 292.954L251.378 299.606L221.641 275.067C232.237 280.01 256.549 258.704 256.549 258.704C252.018 265.312 255.059 268.467 255.059 268.467C262.272 247.582 298.933 230.308 298.933 230.308C296.978 215.882 309.748 216.005 309.748 216.005L305.261 208.678C306.062 208.617 306.845 208.403 307.565 208.047L329.099 239.317L330.931 237.819L309.537 206.548C310.088 205.939 310.514 205.227 310.791 204.453L315.585 210.948C316.133 211.685 316.93 212.198 317.829 212.39C318.727 212.582 319.665 212.44 320.467 211.991L321.019 211.675L318.88 205.067L323.017 209.992C324.765 212.074 327.147 213.525 329.798 214.123C332.45 214.722 335.224 214.434 337.697 213.305L363.113 201.719L387.6 200.404L397.241 204.015L411.518 196.732L424.436 205.067L448.179 194.226L459.248 193.428C464.914 193.027 470.603 193.766 475.979 195.602C476.329 195.032 476.601 193.787 476.347 191.097C476.347 191.097 478.1 193.831 477.223 196.031C477.819 196.259 478.424 196.478 478.976 196.732C486.75 197.608 494.077 198.082 498.958 196.732V201.614H506.355C506.482 202.23 506.529 202.861 506.496 203.489Z" fill="#27304A"/>
        <path d="M212.451 236.938L211.854 237.581L249.135 272.188L249.732 271.545L212.451 236.938Z" fill="#27304A"/>
        <path d="M273.736 235.549L272.817 237.041L310.478 260.256L311.398 258.764L273.736 235.549Z" fill="#E7ECF4"/>
        <path d="M252.989 223.329L252.529 224.075L265.913 232.325L266.373 231.579L252.989 223.329Z" fill="#27304A"/>
        <path d="M410.368 221.683C410.854 221.053 411.511 220.575 412.261 220.308C413.011 220.047 413.792 219.885 414.584 219.826C416.147 219.761 417.707 219.615 419.255 219.387C420.74 218.998 422.05 218.118 422.971 216.889C423.935 215.603 425.08 214.464 426.371 213.507C427.817 212.63 429.386 212.376 430.605 211.508C431.823 210.641 432.541 209.195 433.909 208.187C435.243 207.246 436.724 206.533 438.291 206.075C439.816 205.592 441.271 205.145 442.778 204.628C448.831 202.787 455.067 201.611 461.376 201.123C464.522 200.86 467.66 200.685 470.823 200.588C471.603 200.628 472.384 200.628 473.164 200.588C473.926 200.541 474.653 200.253 475.241 199.764C475.777 199.208 476.169 198.527 476.38 197.784C476.662 197.05 476.702 196.245 476.494 195.487C476.739 196.248 476.739 197.067 476.494 197.827C476.302 198.609 475.92 199.332 475.381 199.931C474.771 200.485 474.001 200.832 473.181 200.921C472.384 201.035 471.586 201.009 470.815 201.044C467.686 201.228 464.54 201.482 461.428 201.824C455.182 202.407 449.014 203.641 443.023 205.505C440.07 206.574 436.836 207.074 434.391 208.861C433.181 209.738 432.471 211.219 431.034 212.183C429.597 213.147 427.984 213.393 426.722 214.129C425.458 215.015 424.333 216.084 423.383 217.301C422.364 218.584 420.939 219.483 419.342 219.852C417.768 220.02 416.185 220.102 414.601 220.097C413.076 220.141 411.402 220.474 410.368 221.683Z" fill="#E7ECF4"/>
        <path d="M412.167 224.996C413.993 224.556 415.781 223.969 417.513 223.243C419.266 222.489 421.264 222.446 422.824 221.552C423.569 221.113 423.929 220.185 424.647 219.483C425.02 219.13 425.475 218.874 425.971 218.738C426.453 218.598 426.908 218.528 427.373 218.432C429.227 218.062 431.104 217.822 432.991 217.713C433.899 217.645 434.789 217.419 435.62 217.047C436.437 216.638 437.199 216.128 437.89 215.531C439.424 214.355 441.167 213.481 443.026 212.954C444.855 212.43 446.721 212.047 448.609 211.806L454.209 211.035C461.667 210.158 469.187 209.466 476.409 207.485C480.011 206.477 483.525 205.128 487.127 203.979C488.925 203.405 490.75 202.923 492.596 202.533C493.525 202.332 494.472 202.323 495.374 202.104C496.288 201.867 497.084 201.302 497.609 200.518C497.12 201.355 496.335 201.98 495.409 202.27C494.489 202.533 493.543 202.577 492.64 202.805C490.817 203.243 489.029 203.813 487.259 204.426C483.753 205.645 480.247 207.056 476.602 208.169C469.31 210.307 461.755 210.956 454.314 211.937L448.722 212.665C446.878 212.893 445.053 213.256 443.262 213.752C441.488 214.235 439.822 215.053 438.355 216.162C437.615 216.79 436.799 217.323 435.927 217.748C435.023 218.135 434.06 218.363 433.079 218.423C431.206 218.486 429.34 218.682 427.496 219.01C426.601 219.053 425.738 219.358 425.015 219.887C424.367 220.465 423.999 221.438 423.07 221.972C422.203 222.397 421.279 222.693 420.327 222.849C419.404 223.005 418.495 223.237 417.61 223.541C415.843 224.189 414.021 224.676 412.167 224.996Z" fill="#E7ECF4"/>
        <path d="M314.016 180.921H304.174V190.763H314.016V180.921Z" fill="#FCBB01"/>
        <path d="M503.612 167.556H495.987V175.181H503.612V167.556Z" fill="#FCBB01"/>
        <path d="M480.308 167.556H477.285V170.58H480.308V167.556Z" fill="#FCBB01"/>
    </g>
    <defs>
        <clipPath id="clip0_6044_8222">
            <rect width="969.462" height="315.81" fill="white"/>
        </clipPath>
    </defs>
</svg>
